HIERARCHY
ROOT Hips
{
  OFFSET 5.80788e-005 67.184 3.4734
  CHANNELS 6 Xposition Yposition Zposition Zrotation Xrotation Yrotation
  JOINT Chest
  {
    OFFSET 0 8.7983 -4.7612
    CHANNELS 3 Zrotation Xrotation Yrotation
    JOINT Chest2
    {
      OFFSET 0 8.0291 0.4195
      CHANNELS 3 Zrotation Xrotation Yrotation
      JOINT Chest3
      {
        OFFSET 0 9.9351 -2.2114
        CHANNELS 3 Zrotation Xrotation Yrotation
        JOINT Neck
        {
          OFFSET 0 22.3885 -0.4656
          CHANNELS 3 Zrotation Xrotation Yrotation
          JOINT Head
          {
            OFFSET -0.0001 12.643 3.4389
            CHANNELS 3 Zrotation Xrotation Yrotation
            End Site
            {
              OFFSET 0.0001 17.6655 0.5274
            }
          }
        }
        JOINT LeftCollar
        {
          OFFSET 2.2603 21.606 7.4023
          CHANNELS 3 Zrotation Xrotation Yrotation
          JOINT LeftShoulder
          {
            OFFSET 13.5163 -1.1332 -5.0146
            CHANNELS 3 Zrotation Xrotation Yrotation
            JOINT LeftElbow
            {
              OFFSET -0.0995 -28.05 -0.2431
              CHANNELS 3 Zrotation Xrotation Yrotation
              JOINT LeftWrist
              {
                OFFSET 0.0679 -23.3996 -0.1402
                CHANNELS 3 Zrotation Xrotation Yrotation
                JOINT LeftFinger1
                {
                  OFFSET 0.7932 -9.069 2.5189
                  CHANNELS 3 Zrotation Xrotation Yrotation
                  JOINT LeftFinger11
                  {
                    OFFSET -0.8272 -3.3923 0.5977
                    CHANNELS 3 Zrotation Xrotation Yrotation
                    JOINT LeftFinger12
                    {
                      OFFSET -0.5649 -2.3158 0.4082
                      CHANNELS 3 Zrotation Xrotation Yrotation
                      End Site
                      {
                        OFFSET -0.4919 -1.6479 0.2673
                      }
                    }
                  }
                }
                JOINT LeftFinger2
                {
                  OFFSET 0.9159 -9.2044 0.2193
                  CHANNELS 3 Zrotation Xrotation Yrotation
                  JOINT LeftFinger21
                  {
                    OFFSET 0.0117 -4.1944 -0.0248
                    CHANNELS 3 Zrotation Xrotation Yrotation
                    JOINT LeftFinger22
                    {
                      OFFSET 0.0071 -2.3249 -0.0142
                      CHANNELS 3 Zrotation Xrotation Yrotation
                      End Site
                      {
                        OFFSET -0.1475 -2.0882 0.0028
                      }
                    }
                  }
                }
                JOINT LeftFinger3
                {
                  OFFSET 0.6113 -8.7231 -2.0637
                  CHANNELS 3 Zrotation Xrotation Yrotation
                  JOINT LeftFinger31
                  {
                    OFFSET -0.1927 -3.8059 -0.2383
                    CHANNELS 3 Zrotation Xrotation Yrotation
                    JOINT LeftFinger32
                    {
                      OFFSET -0.1091 -2.1688 -0.1362
                      CHANNELS 3 Zrotation Xrotation Yrotation
                      End Site
                      {
                        OFFSET -0.2358 -1.9176 -0.0906
                      }
                    }
                  }
                }
                JOINT LeftFinger4
                {
                  OFFSET -0.6151 -8.0947 -3.5641
                  CHANNELS 3 Zrotation Xrotation Yrotation
                  JOINT LeftFinger41
                  {
                    OFFSET -0.4882 -2.341 -0.6462
                    CHANNELS 3 Zrotation Xrotation Yrotation
                    JOINT LeftFinger42
                    {
                      OFFSET -0.3575 -1.7167 -0.4742
                      CHANNELS 3 Zrotation Xrotation Yrotation
                      End Site
                      {
                        OFFSET -0.4187 -1.5237 -0.3496
                      }
                    }
                  }
                }
                JOINT LeftFinger0
                {
                  OFFSET -1.42 -1.8761 1.4223
                  CHANNELS 3 Zrotation Xrotation Yrotation
                  JOINT LeftFinger01
                  {
                    OFFSET -1.1471 -3.4929 2.6334
                    CHANNELS 3 Zrotation Xrotation Yrotation
                    JOINT LeftFinger02
                    {
                      OFFSET -0.823 -2.3 1.6571
                      CHANNELS 3 Zrotation Xrotation Yrotation
                      End Site
                      {
                        OFFSET -0.5822 -1.6914 1.1582
                      }
                    }
                  }
                }
              }
            }
          }
        }
        JOINT RightCollar
        {
          OFFSET -2.2603 21.606 7.4023
          CHANNELS 3 Zrotation Xrotation Yrotation
          JOINT RightShoulder
          {
            OFFSET -13.5187 -1.1334 -5.0155
            CHANNELS 3 Zrotation Xrotation Yrotation
            JOINT RightElbow
            {
              OFFSET 0.0994 -28.0499 -0.2431
              CHANNELS 3 Zrotation Xrotation Yrotation
              JOINT RightWrist
              {
                OFFSET -0.0679 -23.3996 -0.1402
                CHANNELS 3 Zrotation Xrotation Yrotation
                JOINT RightFinger1
                {
                  OFFSET -0.7932 -9.0691 2.5189
                  CHANNELS 3 Zrotation Xrotation Yrotation
                  JOINT RightFinger11
                  {
                    OFFSET 0.8272 -3.3923 0.5977
                    CHANNELS 3 Zrotation Xrotation Yrotation
                    JOINT RightFinger12
                    {
                      OFFSET 0.565 -2.3158 0.4082
                      CHANNELS 3 Zrotation Xrotation Yrotation
                      End Site
                      {
                        OFFSET 0.4919 -1.6479 0.2673
                      }
                    }
                  }
                }
                JOINT RightFinger2
                {
                  OFFSET -0.916 -9.2044 0.2193
                  CHANNELS 3 Zrotation Xrotation Yrotation
                  JOINT RightFinger21
                  {
                    OFFSET -0.0117 -4.1944 -0.0248
                    CHANNELS 3 Zrotation Xrotation Yrotation
                    JOINT RightFinger22
                    {
                      OFFSET -0.0071 -2.3249 -0.0142
                      CHANNELS 3 Zrotation Xrotation Yrotation
                      End Site
                      {
                        OFFSET 0.1475 -2.0882 0.0028
                      }
                    }
                  }
                }
                JOINT RightFinger3
                {
                  OFFSET -0.6113 -8.7231 -2.0637
                  CHANNELS 3 Zrotation Xrotation Yrotation
                  JOINT RightFinger31
                  {
                    OFFSET 0.1927 -3.8059 -0.2383
                    CHANNELS 3 Zrotation Xrotation Yrotation
                    JOINT RightFinger32
                    {
                      OFFSET 0.1091 -2.1688 -0.1362
                      CHANNELS 3 Zrotation Xrotation Yrotation
                      End Site
                      {
                        OFFSET 0.2358 -1.9176 -0.0906
                      }
                    }
                  }
                }
                JOINT RightFinger4
                {
                  OFFSET 0.6151 -8.0947 -3.564
                  CHANNELS 3 Zrotation Xrotation Yrotation
                  JOINT RightFinger41
                  {
                    OFFSET 0.4882 -2.341 -0.6462
                    CHANNELS 3 Zrotation Xrotation Yrotation
                    JOINT RightFinger42
                    {
                      OFFSET 0.3574 -1.7166 -0.4742
                      CHANNELS 3 Zrotation Xrotation Yrotation
                      End Site
                      {
                        OFFSET 0.4187 -1.5237 -0.3496
                      }
                    }
                  }
                }
                JOINT RightFinger0
                {
                  OFFSET 1.4199 -1.8761 1.4221
                  CHANNELS 3 Zrotation Xrotation Yrotation
                  JOINT RightFinger01
                  {
                    OFFSET 1.1472 -3.4929 2.6336
                    CHANNELS 3 Zrotation Xrotation Yrotation
                    JOINT RightFinger02
                    {
                      OFFSET 0.8229 -2.3 1.6571
                      CHANNELS 3 Zrotation Xrotation Yrotation
                      End Site
                      {
                        OFFSET 0.5822 -1.6914 1.1582
                      }
                    }
                  }
                }
              }
            }
          }
        }
      }
    }
  }
  JOINT RightHip
  {
    OFFSET -9.412 3.9771 -0.7758
    CHANNELS 3 Zrotation Xrotation Yrotation
    JOINT RightKnee
    {
      OFFSET -0.7531 -40.938 0
      CHANNELS 3 Zrotation Xrotation Yrotation
      JOINT RightAnkle
      {
        OFFSET 0 -40.1986 0
        CHANNELS 3 Zrotation Xrotation Yrotation
        JOINT RightToe
        {
          OFFSET 0 -4.4182 9.239
          CHANNELS 3 Zrotation Xrotation Yrotation
          End Site
          {
            OFFSET 0 0 6.1981
          }
        }
      }
    }
  }
  JOINT LeftHip
  {
    OFFSET 9.4119 3.9773 -0.7758
    CHANNELS 3 Zrotation Xrotation Yrotation
    JOINT LeftKnee
    {
      OFFSET 0.7532 -40.9383 0
      CHANNELS 3 Zrotation Xrotation Yrotation
      JOINT LeftAnkle
      {
        OFFSET 0 -40.1986 0
        CHANNELS 3 Zrotation Xrotation Yrotation
        JOINT LeftToe
        {
          OFFSET 0 -4.4182 9.239
          CHANNELS 3 Zrotation Xrotation Yrotation
          End Site
          {
            OFFSET 0 0 6.1981
          }
        }
      }
    }
  }
}
MOTION
Frames:	4
Frame Time:	0.0333333
-17.9918 67.9318 -52.7929 -1.43924e-007 7.46363e-007 -66.0085 0.769646 -0.695899 1.72295 1.56003 -1.36827 3.45545 1.56003 -1.36827 3.45542 -5.55757 25.477 16.4506 3.09407 8.71201 12.6202 -17.9433 -1.49848 -10.7143 42.1254 8.49295 27.8115 -27.6437 -13.7161 -44.6438 0.330445 -3.77926 6.36962 -3.31043e-032 1.19271e-015 1.59028e-015 -2.20695e-032 7.95139e-016 1.59028e-015 -0 -3.97569e-016 -0 -3.31043e-032 1.19271e-015 1.59028e-015 -0.0128274 0.00232846 9.54384e-005 9.54166e-015 1.59028e-015 -1.59028e-015 -3.31043e-032 1.19271e-015 1.59028e-015 -0.0160715 0.00301012 0.000866176 -3.18055e-015 1.63003e-014 1.59028e-015 -3.31043e-032 1.19271e-015 1.59028e-015 -0.0125662 0.00310772 0.00282404 6.36111e-015 -8.34896e-015 1.59028e-015 -3.31043e-032 1.19271e-015 1.59028e-015 -2.20695e-032 7.95139e-016 1.59028e-015 -0 -3.97569e-016 -0 21.8096 15.9372 14.7022 -55.0117 3.25973 35.4485 -3.12841 -21.7544 -9.09214 3.77158 4.04006 -34.0921 -3.97569e-016 1.19271e-015 3.18055e-015 -7.16086e-006 -2.31423e-006 -8.19525e-006 -3.97569e-016 -1.19271e-015 -6.36111e-015 -3.97569e-016 1.19271e-015 3.18055e-015 0.0128829 0.00230433 -9.60119e-005 2.78299e-015 -2.78299e-015 3.18055e-015 -3.97569e-016 1.19271e-015 3.18055e-015 0.0162917 0.00302646 -0.000877358 1.98785e-015 -2.78299e-015 6.36111e-015 -3.97569e-016 1.19271e-015 3.18055e-015 0.0146138 0.00369252 -0.00327456 7.15625e-015 1.19271e-015 -3.18055e-015 -3.97569e-016 1.19271e-015 3.18055e-015 -7.16086e-006 -2.31423e-006 -8.19525e-006 -3.97569e-016 -1.19271e-015 -6.36111e-015 -9.84226 3.52657 -13.0463 5.14337 0.00105107 -0.93915 -11.2859 5.4957 10.8079 1.38334e-022 -2.492e-006 3.18055e-015 6.0256 14.2829 -0.0613018 -5.47283 1.73361 0.534645 -14.435 -2.52775 54.9086 4.65495e-007 2.82895e-008 -7.36622e-007 
-18.0856 67.8985 -52.9206 1.62116e-008 0 -66.0085 0.800168 -0.694119 1.62194 1.61983 -1.36524 3.25372 1.61984 -1.36524 3.25375 -5.55404 25.376 16.4444 3.09777 8.62103 12.6309 -17.9433 -1.49851 -10.7143 42.2788 8.51289 27.7915 -27.6437 -13.7163 -44.6438 0.33046 -3.77927 6.36959 3.18055e-015 2.78299e-015 1.59028e-015 -1.54487e-031 2.78299e-015 3.18055e-015 -1.10348e-031 1.59028e-015 3.97569e-015 3.18055e-015 2.78299e-015 1.59028e-015 -0.0128067 0.00231529 8.0769e-005 -1.04448e-005 -6.76886e-006 7.69641e-006 3.18055e-015 2.78299e-015 1.59028e-015 -0.0160526 0.00297738 0.000839089 -6.36111e-015 -6.75868e-015 7.15625e-015 3.18055e-015 2.78299e-015 1.59028e-015 -0.0126269 0.00311961 0.00282857 -3.18055e-015 3.97569e-015 -6.36111e-015 3.18055e-015 2.78299e-015 1.59028e-015 -1.54487e-031 2.78299e-015 3.18055e-015 -1.10348e-031 1.59028e-015 3.97569e-015 21.7232 15.9296 14.6372 -55.0117 3.25972 35.4485 -3.12843 -21.7544 -9.09212 3.77159 4.04006 -34.0921 -1.19271e-015 3.97569e-016 -3.18055e-015 -4.90048e-006 -4.58437e-006 7.00825e-007 -3.97569e-016 0 3.18055e-015 -1.19271e-015 3.97569e-016 -3.18055e-015 0.0129579 0.00232256 -9.25326e-005 2.38542e-015 -7.95139e-016 -9.54166e-015 -1.19271e-015 3.97569e-016 -3.18055e-015 0.0163126 0.00303221 -0.000872885 -3.49754e-006 1.76563e-006 3.04385e-006 -1.19271e-015 3.97569e-016 -3.18055e-015 0.0146659 0.0037005 -0.00328627 7.95139e-016 -1.98785e-015 6.36111e-015 -1.19271e-015 3.97569e-016 -3.18055e-015 -4.90048e-006 -4.58437e-006 7.00825e-007 -3.97569e-016 0 3.18055e-015 -9.74179 3.52181 -13.0485 5.14343 0.0448659 -0.939429 -11.3547 5.22887 10.7739 1.73194e-006 -2.01536e-006 -1.32748e-006 6.1427 14.2975 -0.0934656 -5.4729 1.75571 0.532919 -14.5197 -2.57653 54.9065 -3.4276e-007 -7.013e-008 -1.00819e-006 
-18.1623 67.8712 -53.0251 -6.9934e-008 -1.7705e-007 -66.0085 0.825179 -0.692826 1.5393 1.66885 -1.36315 3.08876 1.66885 -1.36316 3.08875 -5.55055 25.2752 16.438 3.10149 8.53006 12.6417 -17.9434 -1.4984 -10.7144 42.4042 8.52931 27.7751 -27.6437 -13.7165 -44.6439 0.330461 -3.77928 6.36959 -3.18055e-015 2.38542e-015 -0 3.18055e-015 5.96354e-015 2.38542e-015 3.18055e-015 5.1684e-015 3.18055e-015 -3.18055e-015 2.38542e-015 -0 -0.0128251 0.00232155 8.70934e-005 1.32417e-031 3.18055e-015 -2.38542e-015 -3.18055e-015 2.38542e-015 -0 -0.016036 0.00298449 0.00085946 -3.18055e-015 1.59028e-015 -7.95139e-016 -3.18055e-015 2.38542e-015 -0 -0.012605 0.00312259 0.0028303 9.54166e-015 -4.37326e-015 -7.95139e-016 -3.18055e-015 2.38542e-015 -0 3.18055e-015 5.96354e-015 2.38542e-015 3.18055e-015 5.1684e-015 3.18055e-015 21.6525 15.9235 14.5838 -55.0117 3.25977 35.4485 -3.12842 -21.7544 -9.09211 3.7716 4.04005 -34.0921 -3.97569e-015 3.97569e-016 6.36111e-015 1.59028e-015 -7.95139e-016 3.18055e-015 -4.37326e-015 3.18055e-015 -3.18055e-015 -3.97569e-015 3.97569e-016 6.36111e-015 0.0129255 0.00231201 -8.90793e-005 -3.57812e-015 -1.59028e-015 -3.18055e-015 -3.97569e-015 3.97569e-016 6.36111e-015 0.0163397 0.00303526 -0.000875007 1.98785e-015 3.18055e-015 3.18055e-015 -3.97569e-015 3.97569e-016 6.36111e-015 0.0145702 0.003673 -0.00325579 6.36111e-015 3.97569e-015 -1.27222e-014 -3.97569e-015 3.97569e-016 6.36111e-015 1.59028e-015 -7.95139e-016 3.18055e-015 -4.37326e-015 3.18055e-015 -3.18055e-015 -9.65055 3.55618 -13.0494 5.14334 0.00103115 -0.933122 -11.4121 5.05105 10.7492 -2.88012e-022 2.59418e-006 6.36111e-015 6.23848 14.2772 -0.118628 -5.47313 1.83823 0.532627 -14.5894 -2.64787 54.8973 -1.27273e-007 -3.29722e-006 3.84916e-007 
-18.2391 67.844 -53.1296 0 0 -66.0085 0.850185 -0.691613 1.45664 1.71786 -1.36131 2.92367 1.71787 -1.36132 2.92369 -5.54705 25.1742 16.4318 3.10523 8.43911 12.6524 -17.9433 -1.49843 -10.7144 42.5297 8.54566 27.7586 -27.6437 -13.7167 -44.6441 0.330454 -3.77926 6.36962 3.29693e-007 -6.21711e-006 2.64756e-006 -1.80354e-006 6.69503e-006 -1.91387e-006 -2.3143e-006 -8.11462e-006 2.99727e-006 3.29693e-007 -6.21711e-006 2.64756e-006 -0.0128573 0.00233579 7.85179e-005 2.74082e-006 -6.42295e-006 2.3262e-006 3.29693e-007 -6.21711e-006 2.64756e-006 -0.0160729 0.00301013 0.000862561 2.38728e-008 -9.64522e-006 3.76533e-006 3.29693e-007 -6.21711e-006 2.64756e-006 -0.0125526 0.00311968 0.0028226 -1.69362e-006 5.68864e-006 1.36717e-005 3.29693e-007 -6.21711e-006 2.64756e-006 -1.80354e-006 6.69503e-006 -1.91387e-006 -2.3143e-006 -8.11462e-006 2.99727e-006 21.5818 15.9174 14.5307 -55.0117 3.25977 35.4485 -3.12845 -21.7544 -9.09211 3.77156 4.04005 -34.0921 -3.97569e-016 3.97569e-016 -3.18055e-015 -1.98785e-015 4.37326e-015 -3.18055e-015 8.14412e-006 1.16913e-007 1.27927e-005 -3.97569e-016 3.97569e-016 -3.18055e-015 0.012928 0.00230927 -7.32581e-005 -2.41875e-007 8.66788e-008 2.54046e-006 -3.97569e-016 3.97569e-016 -3.18055e-015 0.0163013 0.00302869 -0.000854635 1.63472e-006 -3.10042e-006 -2.32947e-007 -3.97569e-016 3.97569e-016 -3.18055e-015 0.0145082 0.00366185 -0.00323137 -2.41872e-007 -3.28661e-006 2.54033e-006 -3.97569e-016 3.97569e-016 -3.18055e-015 -1.98785e-015 4.37326e-015 -3.18055e-015 8.14412e-006 1.16913e-007 1.27927e-005 -9.56427 3.56969 -13.051 5.14339 0.000893569 -0.930362 -11.469 4.8509 10.7223 0 7.15625e-015 -0 6.33433 14.3196 -0.146206 -5.47302 1.79483 0.530174 -14.6581 -2.65774 54.9026 4.04035e-007 5.53826e-008 1.35272e-007 
